<svg width="256" height="256" viewBox="0 0 256 256" fill="none" xmlns="http://www.w3.org/2000/svg">
    <!-- Chat Themed SVG -->
    <defs>
        <linearGradient id="chat-gradient" x1="0" y1="0" x2="1" y2="1">
            <stop offset="0%" stop-color="#00D4FF"/>
            <stop offset="100%" stop-color="#00B8D9"/>
        </linearGradient>
    </defs>

    <!-- Background Shape -->
    <circle cx="128" cy="128" r="100" fill="url(#chat-gradient)" fill-opacity="0.1"/>

    <!-- Main Chat Bubble -->
    <path d="M60 80 C 60 70 70 60 80 60 H 176 C 186 60 196 70 196 80 V 140 C 196 150 186 160 176 160 H 100 L 70 190 V 160 H 80 C 70 160 60 150 60 140 Z" fill="#00B8D9" stroke="#FFFFFF" stroke-width="4"/>
    <path d="M90 100 H 166" stroke="#FFFFFF" stroke-width="4" stroke-linecap="round"/>
    <path d="M90 120 H 140" stroke="#FFFFFF" stroke-width="4" stroke-linecap="round"/>

    <!-- Secondary smaller chat bubble -->
    <path d="M180 150 C 180 145 185 140 190 140 H 210 C 215 140 220 145 220 150 V 170 C 220 175 215 180 210 180 H 200 L 185 195 V 180 Z" fill="#00D4FF" fill-opacity="0.7" transform="translate(-40, -20)"/>
</svg>
